<svg width="48" height="48" viewBox="0 0 48 48" fill="none" xmlns="http://www.w3.org/2000/svg">
    <circle cx="24" cy="24" r="24" fill="#2C3A8D"/>
    <path d="M25.5438 22.456C24.7247 21.6372 23.614 21.1773 22.4558 21.1773C21.2977 21.1773 20.1869 21.6372 19.3678 22.456L16.2788 25.544C15.4597 26.3631 14.9995 27.4741 14.9995 28.6325C14.9995 29.7909 15.4597 30.9019 16.2788 31.721C17.0979 32.5401 18.2089 33.0003 19.3673 33.0003C20.5257 33.0003 21.6367 32.5401 22.4558 31.721L23.9998 30.177" stroke="white" stroke-width="2" stroke-linecap="round" stroke-linejoin="round"/>
    <path d="M22.4561 25.544C23.2752 26.3628 24.3859 26.8227 25.5441 26.8227C26.7022 26.8227 27.8129 26.3628 28.6321 25.544L31.7211 22.456C32.5402 21.6369 33.0004 20.5259 33.0004 19.3675C33.0004 18.2091 32.5402 17.0981 31.7211 16.279C30.9019 15.4599 29.791 14.9997 28.6326 14.9997C27.4741 14.9997 26.3632 15.4599 25.5441 16.279L24.0001 17.823" stroke="white" stroke-width="2" stroke-linecap="round" stroke-linejoin="round"/>
</svg>
