<svg width="48" height="48" viewBox="0 0 48 48" fill="none" xmlns="http://www.w3.org/2000/svg">
    <circle cx="24" cy="24" r="24" fill="#2C3A8D"/>
    <g clip-path="url(#clip0_405_670)">
        <path d="M33.5531 15C33.4622 14.9906 33.3706 14.9906 33.2798 15H14.6131C14.4935 15.0018 14.3746 15.0198 14.2598 15.0533L23.8931 24.6467L33.5531 15Z" fill="white"/>
        <path d="M34.54 15.9267L24.8333 25.5933C24.5835 25.8417 24.2455 25.9811 23.8933 25.9811C23.541 25.9811 23.2031 25.8417 22.9533 25.5933L13.3333 16C13.3037 16.1087 13.288 16.2207 13.2866 16.3333V29.6667C13.2866 30.0203 13.4271 30.3594 13.6771 30.6095C13.9272 30.8595 14.2663 31 14.62 31H33.2866C33.6402 31 33.9794 30.8595 34.2294 30.6095C34.4795 30.3594 34.62 30.0203 34.62 29.6667V16.3333C34.6146 16.1944 34.5877 16.0572 34.54 15.9267ZM15.5333 29.6667H14.6066V28.7133L19.4533 23.9067L20.3933 24.8467L15.5333 29.6667ZM33.2733 29.6667H32.34L27.48 24.8467L28.42 23.9067L33.2666 28.7133L33.2733 29.6667Z" fill="white"/>
    </g>
    <defs>
        <clipPath id="clip0_405_670">
            <rect width="24" height="24" fill="white" transform="translate(12 11)"/>
        </clipPath>
    </defs>
</svg>
