<svg width="174" height="13" viewBox="0 0 174 13" fill="none" xmlns="http://www.w3.org/2000/svg">
    <g clip-path="url(#clip0_125_2)">
        <path d="M98.7703 5.8454C99.9401 6.1315 100.525 6.76918 100.525 7.72743C100.535 8.01588 100.476 8.3026 100.353 8.56349C100.229 8.82438 100.045 9.05183 99.8163 9.22685C99.3025 9.61766 98.668 9.8153 98.0237 9.78528C97.1997 9.82946 96.3872 9.57767 95.7321 9.07517C95.6107 8.97407 95.5308 8.8315 95.508 8.67497C95.4851 8.51845 95.5208 8.35894 95.6082 8.22725C95.6465 8.16237 95.6972 8.10574 95.7574 8.06056C95.8176 8.01538 95.8861 7.98258 95.959 7.96401C96.0319 7.94544 96.1077 7.94146 96.1822 7.95235C96.2566 7.96316 96.3281 7.9887 96.3927 8.02733C96.4234 8.04633 96.4522 8.06824 96.4787 8.09279C96.9488 8.42255 97.5119 8.59287 98.0856 8.57878C98.8184 8.57878 99.2314 8.25479 99.2314 7.755C99.2314 7.39308 98.9802 7.16902 98.3711 7.02081C97.7621 6.87259 97.4869 6.82088 97.4731 6.8071C96.2654 6.50722 95.6702 5.88332 95.6702 4.93541C95.6604 4.655 95.7178 4.37632 95.8375 4.12266C95.9572 3.869 96.1358 3.64774 96.3583 3.47736C96.8672 3.09792 97.4894 2.90232 98.1234 2.92241C98.7997 2.88839 99.4659 3.09742 100.002 3.51183C100.119 3.61826 100.191 3.7656 100.202 3.92341C100.214 4.08122 100.164 4.23744 100.064 4.35977C99.9583 4.47972 99.8114 4.55526 99.6525 4.57124C99.4936 4.58722 99.3346 4.54247 99.2073 4.44594C98.8576 4.24233 98.4589 4.13861 98.0546 4.14607C97.3045 4.14607 96.9329 4.41148 96.9329 4.92163C96.9329 5.26632 97.1565 5.45935 97.7931 5.61101L98.7703 5.8454Z" fill="#DDDDDD"/>
        <path d="M107.362 6.07981C107.374 6.17381 107.366 6.26915 107.341 6.36035C107.315 6.45154 107.272 6.53678 107.214 6.61114C107.155 6.68549 107.082 6.74749 107 6.79355C106.917 6.83961 106.826 6.86882 106.732 6.8795C106.678 6.88638 106.622 6.88638 106.567 6.8795H103.04V7.03117C103.04 8.01353 103.687 8.57537 104.685 8.57537C105.176 8.55751 105.66 8.45613 106.117 8.27549C106.259 8.2015 106.426 8.1872 106.579 8.23558C106.733 8.28403 106.861 8.39132 106.935 8.53404C106.974 8.61123 106.997 8.69582 107.001 8.78219C107.002 8.89873 106.97 9.01306 106.909 9.11238C106.848 9.21163 106.761 9.29195 106.657 9.34403C106.036 9.66767 105.339 9.81772 104.64 9.77838C103.883 9.81338 103.142 9.54986 102.576 9.04415C102.056 8.52685 101.754 7.83019 101.73 7.09666C101.692 6.58146 101.692 6.06417 101.73 5.54898C101.77 4.82211 102.094 4.14024 102.631 3.64973C103.168 3.16456 103.87 2.90422 104.592 2.92242C105.289 2.89058 105.97 3.13683 106.486 3.60721C107.002 4.07759 107.311 4.73372 107.345 5.43179C107.35 5.52709 107.35 5.62259 107.345 5.71789L107.362 6.07981ZM105.931 5.83163C106.017 5.83163 106.068 5.78337 106.079 5.68341C106.131 5.3219 106.038 4.95443 105.82 4.66168C105.602 4.36893 105.276 4.17481 104.916 4.12196C104.808 4.10814 104.7 4.10814 104.592 4.12196C103.56 4.12196 102.996 4.78032 103.034 5.84542L105.931 5.83163Z" fill="#DDDDDD"/>
        <path d="M110.218 1.44025V5.67998H110.39C110.514 5.6801 110.636 5.65477 110.75 5.60556C110.864 5.55635 110.966 5.4843 111.051 5.39388L113.184 3.22577C113.241 3.16094 113.311 3.10808 113.388 3.0702C113.466 3.03233 113.551 3.0102 113.637 3.00508C113.723 2.99996 113.81 3.01194 113.891 3.04034C113.973 3.06875 114.048 3.11302 114.113 3.17061L114.14 3.19819C114.257 3.31855 114.323 3.47996 114.323 3.64802C114.323 3.81606 114.257 3.97748 114.14 4.09784L111.911 6.26941L114.14 8.56505C114.264 8.68969 114.333 8.85817 114.333 9.03383C114.333 9.20949 114.264 9.37803 114.14 9.50261C114.016 9.6264 113.848 9.69584 113.672 9.69584C113.497 9.69584 113.329 9.6264 113.205 9.50261L111.051 7.2311C110.97 7.13901 110.87 7.06504 110.759 7.01397C110.647 6.9629 110.526 6.93588 110.404 6.93466H110.218V9.04073C110.223 9.12703 110.21 9.2134 110.181 9.29486C110.152 9.37632 110.108 9.45124 110.05 9.51534C109.992 9.57944 109.922 9.63138 109.844 9.66831C109.766 9.70516 109.681 9.72615 109.595 9.73013H109.53C109.355 9.7196 109.19 9.64234 109.07 9.51413C108.949 9.386 108.883 9.2166 108.883 9.04073V1.45749C108.877 1.28584 108.94 1.11892 109.056 0.99304C109.173 0.867163 109.334 0.792516 109.506 0.785338H109.544C109.631 0.780698 109.719 0.793747 109.801 0.823712C109.884 0.853678 109.959 0.899946 110.023 0.959762C110.087 1.01958 110.139 1.09172 110.175 1.1719C110.211 1.25208 110.23 1.33865 110.232 1.42647C110.228 1.43153 110.223 1.43616 110.218 1.44025Z" fill="#DDDDDD"/>
        <path d="M120.241 3.63602C120.505 3.86063 120.719 4.13723 120.871 4.44858C121.023 4.75993 121.11 5.09935 121.125 5.44567C121.16 6.03919 121.16 6.63421 121.125 7.22773C121.107 7.57692 121.019 7.91899 120.867 8.23381C120.716 8.54871 120.503 8.83009 120.241 9.06152C119.684 9.52845 118.98 9.78437 118.254 9.78437C117.527 9.78437 116.824 9.52845 116.267 9.06152C115.739 8.59168 115.417 7.93322 115.369 7.22773C115.334 6.63421 115.334 6.03919 115.369 5.44567C115.389 5.10044 115.478 4.76276 115.63 4.45214C115.782 4.14152 115.994 3.86414 116.253 3.63602C116.819 3.18265 117.522 2.93567 118.247 2.93567C118.972 2.93567 119.675 3.18265 120.241 3.63602ZM116.69 5.62145C116.652 6.10213 116.652 6.58504 116.69 7.06572C116.725 7.48115 116.923 7.86578 117.24 8.1357C117.557 8.4057 117.968 8.53896 118.383 8.50652C118.755 8.47564 119.104 8.31286 119.367 8.04755C119.63 7.78222 119.79 7.43166 119.818 7.05883C119.845 6.5778 119.845 6.09558 119.818 5.61456C119.774 5.20039 119.569 4.8203 119.247 4.5574C118.924 4.2945 118.511 4.1702 118.097 4.21166C117.737 4.24925 117.4 4.40986 117.144 4.66655C116.888 4.92324 116.728 5.26039 116.69 5.62145Z" fill="#DDDDDD"/>
        <path d="M122.171 3.98401C122.12 3.87983 122.098 3.76398 122.106 3.6483C122.115 3.53263 122.154 3.42128 122.219 3.32565C122.277 3.23285 122.358 3.15651 122.454 3.10399C122.549 3.05147 122.657 3.02454 122.766 3.02577C122.922 3.01323 123.076 3.0567 123.203 3.14834C123.329 3.23998 123.418 3.37376 123.454 3.52557L125.133 7.55503C125.139 7.56442 125.146 7.57244 125.155 7.57843C125.164 7.58441 125.174 7.5882 125.185 7.5895C125.198 7.59133 125.211 7.58896 125.222 7.58273C125.233 7.5765 125.242 7.56677 125.247 7.55503L126.792 3.5497C126.809 3.4607 126.844 3.376 126.894 3.30043C126.944 3.22487 127.008 3.15994 127.083 3.10934C127.159 3.05876 127.243 3.02351 127.332 3.00562C127.42 2.98773 127.512 2.98755 127.601 3.00509C127.779 3.04012 127.937 3.14468 128.039 3.29586C128.141 3.44704 128.179 3.63252 128.144 3.81167C128.134 3.87176 128.114 3.92988 128.086 3.98401L125.746 9.56112C125.285 10.6986 124.6 11.5569 124.053 11.9085C123.888 12.024 123.693 12.0887 123.492 12.0946C123.331 12.0974 123.175 12.0364 123.059 11.9247C122.942 11.8131 122.874 11.6599 122.869 11.4984V11.4707C122.864 11.3652 122.887 11.2602 122.935 11.1659C122.982 11.0716 123.053 10.9914 123.141 10.933C123.756 10.5195 124.216 9.9133 124.449 9.20959L122.171 3.98401Z" fill="#DDDDDD"/>
        <path d="M134.001 8.60304C134.006 8.69759 133.987 8.79193 133.945 8.87695C133.903 8.96204 133.841 9.03504 133.763 9.08904C132.981 9.55753 132.083 9.79637 131.172 9.77844C129.531 9.77844 128.619 8.90633 128.619 7.62064C128.614 7.34264 128.669 7.06684 128.782 6.81258C128.894 6.55833 129.061 6.33177 129.27 6.1488C129.797 5.71732 130.469 5.50292 131.148 5.54903C131.682 5.55941 132.213 5.63112 132.731 5.76275V5.35946C132.731 4.50806 132.308 4.14614 131.355 4.14614C130.89 4.15989 130.432 4.25316 129.999 4.42189C129.462 4.5839 129.087 4.33571 129.087 3.92208C129.09 3.78801 129.133 3.65788 129.211 3.54893C129.289 3.43999 129.398 3.35735 129.524 3.31198C130.122 3.03939 130.774 2.90621 131.43 2.92247C133.075 2.92247 134.007 3.69803 134.007 5.33533L134.001 8.60304ZM132.731 8.25834V6.87955C132.239 6.74825 131.733 6.6765 131.224 6.66585C130.439 6.66585 129.916 7.01053 129.916 7.6034C129.916 8.29277 130.402 8.63747 131.293 8.63747C131.803 8.67191 132.31 8.53218 132.731 8.24112V8.25834Z" fill="#DDDDDD"/>
        <path d="M141.133 2.92243C141.696 2.92191 142.253 3.03932 142.768 3.26712V1.42646C142.772 1.25187 142.842 1.08537 142.964 0.960611C143.086 0.835849 143.251 0.762117 143.425 0.754309C143.512 0.753399 143.598 0.76964 143.678 0.802103C143.758 0.834566 143.831 0.88261 143.893 0.94347C143.955 1.00433 144.004 1.07681 144.037 1.15674C144.071 1.23667 144.089 1.32247 144.089 1.40922C144.091 1.42065 144.091 1.43227 144.089 1.4437V8.51338C144.096 8.61007 144.078 8.70697 144.036 8.79455C143.994 8.88213 143.931 8.95747 143.852 9.01318C143.524 9.23402 143.169 9.41017 142.795 9.5371C142.319 9.70386 141.817 9.78782 141.312 9.78525C139.668 9.78525 138.611 8.77534 138.474 7.2173C138.422 6.62786 138.422 6.03502 138.474 5.44559C138.608 3.85999 139.558 2.92243 141.133 2.92243ZM141.333 8.49958C141.842 8.47873 142.337 8.3242 142.768 8.05143V4.60453C142.304 4.33131 141.771 4.19731 141.233 4.21847C140.325 4.21847 139.857 4.67691 139.792 5.59724C139.754 6.08367 139.754 6.57232 139.792 7.05875C139.867 8.03535 140.381 8.52256 141.333 8.52021V8.49958Z" fill="#DDDDDD"/>
        <path d="M145.94 1.4023C145.956 1.20596 146.048 1.02371 146.197 0.89477C146.346 0.765834 146.539 0.700527 146.735 0.712914C146.913 0.72572 147.081 0.802463 147.208 0.929079C147.334 1.05569 147.411 1.2237 147.423 1.4023C147.43 1.49967 147.418 1.59747 147.387 1.69009C147.357 1.7827 147.308 1.8683 147.244 1.94196C147.18 2.01564 147.102 2.07592 147.015 2.11937C146.927 2.1628 146.832 2.18854 146.735 2.19509C146.539 2.20748 146.346 2.14218 146.197 2.01325C146.048 1.88431 145.956 1.70205 145.94 1.50571V1.4023ZM147.348 9.03727C147.352 9.12399 147.339 9.21072 147.309 9.2924C147.28 9.37414 147.235 9.4492 147.176 9.51323C147.118 9.57733 147.047 9.6292 146.968 9.66584C146.89 9.70241 146.805 9.72311 146.718 9.72667H146.691C146.513 9.71948 146.345 9.64371 146.222 9.51522C146.098 9.38673 146.03 9.21542 146.03 9.03727V3.69796C146.027 3.5236 146.093 3.35518 146.214 3.22932C146.334 3.10346 146.499 3.03032 146.673 3.02581H146.691C146.868 3.0338 147.035 3.10994 147.157 3.23837C147.28 3.36679 147.348 3.53761 147.348 3.7152V9.03727Z" fill="#DDDDDD"/>
        <path d="M154.817 9.23721C154.846 9.62894 154.786 10.0221 154.642 10.3874C154.498 10.7526 154.273 11.0805 153.985 11.3467C153.385 11.8472 152.621 12.1053 151.841 12.0705C151.154 12.0828 150.477 11.8987 149.891 11.5397C149.743 11.473 149.614 11.369 149.518 11.2379C149.422 11.1068 149.362 10.9531 149.343 10.7917C149.342 10.6408 149.4 10.4956 149.506 10.3873C149.61 10.279 149.753 10.2162 149.904 10.2126H149.962C150.256 10.2473 150.538 10.3499 150.785 10.5126C151.097 10.702 151.452 10.8088 151.817 10.8228C152.75 10.8228 153.496 10.2643 153.496 9.31298V9.1889C152.96 9.44695 152.371 9.57899 151.776 9.57494C150.231 9.57494 149.257 8.59263 149.158 7.09318C149.123 6.56176 149.123 6.02867 149.158 5.49725C149.326 3.95303 150.31 2.91895 151.993 2.91895C152.901 2.93168 153.788 3.19528 154.556 3.68072C154.642 3.73467 154.711 3.81092 154.758 3.90135C154.804 3.99178 154.825 4.09302 154.817 4.19431V9.23721ZM150.51 5.6558C150.472 6.08353 150.472 6.51379 150.51 6.94152C150.571 7.90322 151.071 8.37542 151.993 8.37542C152.529 8.38488 153.055 8.22843 153.5 7.92734V4.5976C153.055 4.34345 152.552 4.21034 152.041 4.21154C151.084 4.21154 150.568 4.69756 150.5 5.6558H150.51Z" fill="#DDDDDD"/>
        <path d="M156.652 1.4023C156.667 1.20596 156.76 1.02371 156.908 0.89477C157.057 0.765834 157.25 0.700527 157.446 0.712914C157.625 0.72572 157.792 0.802463 157.919 0.929079C158.045 1.05569 158.121 1.2237 158.134 1.4023C158.141 1.49967 158.129 1.59747 158.099 1.69009C158.067 1.7827 158.019 1.8683 157.955 1.94196C157.891 2.01564 157.813 2.07592 157.726 2.11937C157.638 2.1628 157.544 2.18854 157.446 2.19509C157.25 2.20748 157.057 2.14218 156.908 2.01325C156.76 1.88431 156.667 1.70205 156.652 1.50571V1.4023ZM158.059 9.03727C158.063 9.12399 158.05 9.21072 158.02 9.2924C157.991 9.37414 157.946 9.4492 157.887 9.51323C157.829 9.57733 157.758 9.6292 157.68 9.66584C157.601 9.70241 157.516 9.72311 157.429 9.72667H157.398C157.221 9.71948 157.052 9.64371 156.929 9.51522C156.806 9.38673 156.738 9.21542 156.738 9.03727V3.69796C156.735 3.5236 156.801 3.35518 156.921 3.22932C157.041 3.10346 157.207 3.03032 157.381 3.02581H157.398C157.576 3.03294 157.744 3.1087 157.867 3.23722C157.991 3.36573 158.059 3.53704 158.059 3.7152V9.03727Z" fill="#DDDDDD"/>
        <path d="M162.043 9.78524C160.688 9.78524 159.979 8.88908 159.979 7.5413V2.3261C159.975 2.23834 159.989 2.1507 160.02 2.06833C160.049 1.98596 160.096 1.91049 160.156 1.84632C160.216 1.78216 160.288 1.73057 160.368 1.69458C160.448 1.6586 160.535 1.63892 160.622 1.63672H160.639C160.817 1.64384 160.985 1.7196 161.108 1.84813C161.231 1.97665 161.3 2.14794 161.3 2.3261V3.26711H163.02C163.176 3.26711 163.325 3.32874 163.435 3.43853C163.546 3.54832 163.607 3.69737 163.609 3.85309C163.609 4.0085 163.547 4.15755 163.437 4.26744C163.328 4.37733 163.179 4.43907 163.024 4.43907H161.303V7.5413C161.303 8.19968 161.603 8.52368 162.187 8.52368C162.493 8.49294 162.794 8.43055 163.086 8.33756C163.161 8.31031 163.24 8.29822 163.32 8.30206C163.4 8.30583 163.478 8.32547 163.55 8.35983C163.622 8.39412 163.686 8.44243 163.74 8.50191C163.792 8.56139 163.834 8.63089 163.86 8.70638C163.887 8.77539 163.898 8.84953 163.894 8.92352C163.896 9.06033 163.852 9.19387 163.772 9.30429C163.691 9.41478 163.578 9.49638 163.447 9.53708C163.001 9.71622 162.523 9.80067 162.043 9.78524Z" fill="#DDDDDD"/>
        <path d="M170.14 8.603C170.145 8.69756 170.125 8.79183 170.084 8.87692C170.042 8.96201 169.98 9.035 169.902 9.089C169.12 9.5575 168.222 9.79633 167.311 9.7784C165.667 9.7784 164.758 8.9063 164.758 7.6206C164.753 7.343 164.809 7.06766 164.92 6.81356C165.032 6.55946 165.197 6.33264 165.405 6.14876C165.933 5.71706 166.606 5.50268 167.287 5.54899C167.821 5.55937 168.352 5.63108 168.87 5.7627V5.35941C168.87 4.50802 168.446 4.14609 167.494 4.14609C167.028 4.16013 166.569 4.25338 166.135 4.42185C165.601 4.58385 165.226 4.33567 165.226 3.92203C165.228 3.78797 165.272 3.65784 165.35 3.54889C165.428 3.43994 165.537 3.35731 165.663 3.31193C166.255 3.04306 166.899 2.90999 167.548 2.92243C169.19 2.92243 170.125 3.69799 170.125 5.33528L170.14 8.603ZM168.87 8.2583V6.8795C168.378 6.7482 167.872 6.67646 167.363 6.6658C166.578 6.6658 166.055 7.01049 166.055 7.60336C166.055 8.29274 166.54 8.63744 167.432 8.63744C167.942 8.66995 168.448 8.53043 168.87 8.24101V8.2583Z" fill="#DDDDDD"/>
        <path d="M173.277 9.03727C173.29 9.20773 173.234 9.37614 173.122 9.50548C173.011 9.63475 172.852 9.71429 172.682 9.72667H172.62C172.442 9.71956 172.274 9.64379 172.151 9.51523C172.028 9.38674 171.959 9.21542 171.959 9.03727V1.45402C171.956 1.27966 172.023 1.11124 172.143 0.985381C172.264 0.85952 172.429 0.78638 172.603 0.78186H172.63C172.807 0.789851 172.975 0.865998 173.097 0.994427C173.219 1.12286 173.288 1.29366 173.288 1.47125L173.277 9.03727Z" fill="#DDDDDD"/>
        <path d="M135.81 9.01993C135.81 8.82339 135.888 8.63488 136.027 8.49596C136.166 8.35696 136.354 8.27893 136.55 8.27893C136.746 8.27893 136.934 8.35696 137.073 8.49596C137.212 8.63488 137.29 8.82339 137.29 9.01993C137.29 9.2164 137.212 9.4049 137.073 9.54383C136.934 9.68282 136.746 9.76085 136.55 9.76085C136.354 9.76085 136.166 9.68282 136.027 9.54383C135.888 9.4049 135.81 9.2164 135.81 9.01993Z" fill="#DDDDDD"/>
        <path d="M85.0497 12.0946C84.9796 12.0968 84.9097 12.0853 84.8441 12.0605C84.7785 12.0359 84.7185 11.9985 84.6675 11.9506C84.6165 11.9027 84.5755 11.8453 84.5469 11.7816C84.5183 11.7179 84.5028 11.6492 84.501 11.5795C84.4993 11.5716 84.4993 11.5636 84.501 11.5558V4.10035H77.1325C76.9906 4.10035 76.8545 4.04429 76.7541 3.94451C76.6538 3.84473 76.5974 3.7094 76.5974 3.5683C76.5974 3.42719 76.6538 3.29186 76.7541 3.19209C76.8545 3.0923 76.9906 3.03625 77.1325 3.03625H85.0497C85.1916 3.03625 85.3277 3.0923 85.4281 3.19209C85.5284 3.29186 85.5848 3.42719 85.5848 3.5683V11.5558C85.5862 11.6258 85.5735 11.6953 85.5476 11.7604C85.5217 11.8255 85.4831 11.8848 85.4339 11.935C85.3848 11.9851 85.3261 12.025 85.2613 12.0524C85.1965 12.0798 85.1269 12.0941 85.0565 12.0946H85.0497Z" fill="#DDDDDD"/>
        <path d="M82.6232 12.0945C82.4824 12.091 82.3488 12.0324 82.2512 11.9315C82.1536 11.8307 82.0999 11.6957 82.1017 11.5557V6.52329H77.1326C76.9906 6.51118 76.8591 6.44393 76.7666 6.3361C76.6741 6.22827 76.628 6.08854 76.6384 5.94719C76.6492 5.82046 76.7047 5.70163 76.7952 5.61171C76.8856 5.52178 77.0051 5.46655 77.1326 5.45581H82.6232C82.7648 5.4567 82.9004 5.51303 83.0005 5.61262C83.1007 5.71221 83.1574 5.84702 83.1583 5.98785V11.5557C83.1596 11.6257 83.147 11.6953 83.1211 11.7604C83.0952 11.8255 83.0565 11.8848 83.0074 11.9349C82.9582 11.985 82.8996 12.0249 82.8348 12.0523C82.77 12.0797 82.7004 12.0941 82.63 12.0945H82.6232Z" fill="#DDDDDD"/>
        <path d="M80.0768 9.03341C79.936 9.03256 79.8013 8.97658 79.7019 8.87763C79.6024 8.77868 79.5461 8.64474 79.5452 8.50482C79.5463 8.36561 79.6012 8.23216 79.6985 8.13215L84.3192 3.54108C84.3686 3.49181 84.4273 3.45271 84.4919 3.42603C84.5565 3.39935 84.6258 3.38562 84.6957 3.38562C84.7657 3.38562 84.835 3.39935 84.8996 3.42603C84.9642 3.45271 85.0229 3.49181 85.0723 3.54108C85.1718 3.64127 85.2275 3.77639 85.2275 3.91718C85.2275 4.05796 85.1718 4.19308 85.0723 4.29327L80.455 8.87756C80.3547 8.97729 80.2186 9.03341 80.0768 9.03341Z" fill="#DDDDDD"/>
        <path d="M78.0151 11.962C78.7829 11.962 79.4054 11.343 79.4054 10.5796C79.4054 9.81608 78.7829 9.19714 78.0151 9.19714C77.2472 9.19714 76.6248 9.81608 76.6248 10.5796C76.6248 11.343 77.2472 11.962 78.0151 11.962Z" fill="#DDDDDD"/>
        <path d="M87.3775 12.0301C87.2356 12.0292 87.0996 11.973 86.999 11.8735C86.8982 11.774 86.8408 11.6392 86.839 11.4981V1.77552H77.0644C76.9225 1.77552 76.7864 1.71946 76.686 1.61969C76.5857 1.51991 76.5293 1.38458 76.5293 1.24347C76.5293 1.10237 76.5857 0.967035 76.686 0.867257C76.7864 0.767479 76.9225 0.711426 77.0644 0.711426H87.3775C87.5195 0.711426 87.6556 0.767479 87.7559 0.867257C87.8563 0.967035 87.9126 1.10237 87.9126 1.24347V11.4981C87.9117 11.6389 87.8551 11.7737 87.7549 11.8733C87.6548 11.9729 87.5192 12.0292 87.3775 12.0301Z" fill="#DDDDDD"/>
    </g>
    <path d="M2.96808 11.1C2.40808 11.1 1.92474 11 1.51808 10.8C1.11808 10.6 0.808077 10.2967 0.588077 9.89C0.374743 9.47667 0.268076 8.94667 0.268076 8.3V4.24C0.268076 4.16667 0.288076 4.11 0.328077 4.07C0.368077 4.02333 0.424743 4 0.498076 4H1.00808C1.08141 4 1.13808 4.02333 1.17808 4.07C1.22474 4.11 1.24808 4.16667 1.24808 4.24V8.32C1.24808 8.97333 1.40141 9.45667 1.70808 9.77C2.01474 10.0833 2.43474 10.24 2.96808 10.24C3.49474 10.24 3.91141 10.0833 4.21808 9.77C4.53141 9.45667 4.68808 8.97333 4.68808 8.32V4.24C4.68808 4.16667 4.70808 4.11 4.74808 4.07C4.79474 4.02333 4.85141 4 4.91808 4H5.43808C5.50474 4 5.55808 4.02333 5.59808 4.07C5.64474 4.11 5.66808 4.16667 5.66808 4.24V8.3C5.66808 8.94667 5.55808 9.47667 5.33808 9.89C5.12474 10.2967 4.81808 10.6 4.41808 10.8C4.01808 11 3.53474 11.1 2.96808 11.1ZM7.4398 11C7.37313 11 7.31646 10.98 7.2698 10.94C7.2298 10.8933 7.2098 10.8367 7.2098 10.77V6.03C7.2098 5.96333 7.2298 5.91 7.2698 5.87C7.31646 5.82333 7.37313 5.8 7.4398 5.8H7.9098C7.97646 5.8 8.0298 5.82333 8.0698 5.87C8.11646 5.91 8.1398 5.96333 8.1398 6.03V6.47C8.31313 6.24333 8.5298 6.06 8.7898 5.92C9.05646 5.77333 9.39646 5.7 9.8098 5.7C10.2431 5.7 10.6098 5.79667 10.9098 5.99C11.2165 6.17667 11.4465 6.44 11.5998 6.78C11.7531 7.11333 11.8298 7.50333 11.8298 7.95V10.77C11.8298 10.8367 11.8098 10.8933 11.7698 10.94C11.7298 10.98 11.6765 11 11.6098 11H11.1098C11.0431 11 10.9865 10.98 10.9398 10.94C10.8998 10.8933 10.8798 10.8367 10.8798 10.77V8C10.8798 7.53333 10.7665 7.17 10.5398 6.91C10.3131 6.64333 9.9798 6.51 9.5398 6.51C9.12646 6.51 8.79313 6.64333 8.5398 6.91C8.29313 7.17 8.1698 7.53333 8.1698 8V10.77C8.1698 10.8367 8.14646 10.8933 8.0998 10.94C8.0598 10.98 8.00646 11 7.9398 11H7.4398ZM15.3442 11.1C14.6576 11.1 14.1109 10.89 13.7042 10.47C13.2976 10.0433 13.0742 9.46333 13.0342 8.73C13.0276 8.64333 13.0242 8.53333 13.0242 8.4C13.0242 8.26 13.0276 8.14667 13.0342 8.06C13.0609 7.58667 13.1709 7.17333 13.3642 6.82C13.5576 6.46 13.8209 6.18333 14.1542 5.99C14.4942 5.79667 14.8909 5.7 15.3442 5.7C15.8509 5.7 16.2742 5.80667 16.6142 6.02C16.9609 6.23333 17.2242 6.53667 17.4042 6.93C17.5842 7.32333 17.6742 7.78333 17.6742 8.31V8.48C17.6742 8.55333 17.6509 8.61 17.6042 8.65C17.5642 8.69 17.5109 8.71 17.4442 8.71H13.9842C13.9842 8.71667 13.9842 8.73 13.9842 8.75C13.9842 8.77 13.9842 8.78667 13.9842 8.8C13.9976 9.07333 14.0576 9.33 14.1642 9.57C14.2709 9.80333 14.4242 9.99333 14.6242 10.14C14.8242 10.2867 15.0642 10.36 15.3442 10.36C15.5842 10.36 15.7842 10.3233 15.9442 10.25C16.1042 10.1767 16.2342 10.0967 16.3342 10.01C16.4342 9.91667 16.5009 9.84667 16.5342 9.8C16.5942 9.71333 16.6409 9.66333 16.6742 9.65C16.7076 9.63 16.7609 9.62 16.8342 9.62H17.3142C17.3809 9.62 17.4342 9.64 17.4742 9.68C17.5209 9.71333 17.5409 9.76333 17.5342 9.83C17.5276 9.93 17.4742 10.0533 17.3742 10.2C17.2742 10.34 17.1309 10.48 16.9442 10.62C16.7576 10.76 16.5309 10.8767 16.2642 10.97C15.9976 11.0567 15.6909 11.1 15.3442 11.1ZM13.9842 8.02H16.7242V7.99C16.7242 7.69 16.6676 7.42333 16.5542 7.19C16.4476 6.95667 16.2909 6.77333 16.0842 6.64C15.8776 6.5 15.6309 6.43 15.3442 6.43C15.0576 6.43 14.8109 6.5 14.6042 6.64C14.4042 6.77333 14.2509 6.95667 14.1442 7.19C14.0376 7.42333 13.9842 7.69 13.9842 7.99V8.02ZM21.5511 11C21.4845 11 21.4278 10.98 21.3811 10.94C21.3411 10.8933 21.3211 10.8367 21.3211 10.77V6.04C21.3211 5.97333 21.3411 5.91667 21.3811 5.87C21.4278 5.82333 21.4845 5.8 21.5511 5.8H22.0111C22.0778 5.8 22.1345 5.82333 22.1811 5.87C22.2278 5.91667 22.2511 5.97333 22.2511 6.04V6.48C22.3845 6.25333 22.5678 6.08333 22.8011 5.97C23.0345 5.85667 23.3145 5.8 23.6411 5.8H24.0411C24.1078 5.8 24.1611 5.82333 24.2011 5.87C24.2411 5.91 24.2611 5.96333 24.2611 6.03V6.44C24.2611 6.50667 24.2411 6.56 24.2011 6.6C24.1611 6.64 24.1078 6.66 24.0411 6.66H23.4411C23.0811 6.66 22.7978 6.76667 22.5911 6.98C22.3845 7.18667 22.2811 7.47 22.2811 7.83V10.77C22.2811 10.8367 22.2578 10.8933 22.2111 10.94C22.1645 10.98 22.1078 11 22.0411 11H21.5511ZM27.0923 11.1C26.4056 11.1 25.859 10.89 25.4523 10.47C25.0456 10.0433 24.8223 9.46333 24.7823 8.73C24.7756 8.64333 24.7723 8.53333 24.7723 8.4C24.7723 8.26 24.7756 8.14667 24.7823 8.06C24.809 7.58667 24.919 7.17333 25.1123 6.82C25.3056 6.46 25.569 6.18333 25.9023 5.99C26.2423 5.79667 26.639 5.7 27.0923 5.7C27.599 5.7 28.0223 5.80667 28.3623 6.02C28.709 6.23333 28.9723 6.53667 29.1523 6.93C29.3323 7.32333 29.4223 7.78333 29.4223 8.31V8.48C29.4223 8.55333 29.399 8.61 29.3523 8.65C29.3123 8.69 29.259 8.71 29.1923 8.71H25.7323C25.7323 8.71667 25.7323 8.73 25.7323 8.75C25.7323 8.77 25.7323 8.78667 25.7323 8.8C25.7456 9.07333 25.8056 9.33 25.9123 9.57C26.019 9.80333 26.1723 9.99333 26.3723 10.14C26.5723 10.2867 26.8123 10.36 27.0923 10.36C27.3323 10.36 27.5323 10.3233 27.6923 10.25C27.8523 10.1767 27.9823 10.0967 28.0823 10.01C28.1823 9.91667 28.249 9.84667 28.2823 9.8C28.3423 9.71333 28.389 9.66333 28.4223 9.65C28.4556 9.63 28.509 9.62 28.5823 9.62H29.0623C29.129 9.62 29.1823 9.64 29.2223 9.68C29.269 9.71333 29.289 9.76333 29.2823 9.83C29.2756 9.93 29.2223 10.0533 29.1223 10.2C29.0223 10.34 28.879 10.48 28.6923 10.62C28.5056 10.76 28.279 10.8767 28.0123 10.97C27.7456 11.0567 27.439 11.1 27.0923 11.1ZM25.7323 8.02H28.4723V7.99C28.4723 7.69 28.4156 7.42333 28.3023 7.19C28.1956 6.95667 28.039 6.77333 27.8323 6.64C27.6256 6.5 27.379 6.43 27.0923 6.43C26.8056 6.43 26.559 6.5 26.3523 6.64C26.1523 6.77333 25.999 6.95667 25.8923 7.19C25.7856 7.42333 25.7323 7.69 25.7323 7.99V8.02ZM26.8223 5.05C26.7156 5.05 26.6623 4.99667 26.6623 4.89C26.6623 4.83667 26.679 4.79333 26.7123 4.76L27.4623 3.86C27.5223 3.78667 27.5756 3.74 27.6223 3.72C27.669 3.69333 27.739 3.68 27.8323 3.68H28.5123C28.639 3.68 28.7023 3.74333 28.7023 3.87C28.7023 3.91667 28.6856 3.95667 28.6523 3.99L27.4923 4.94C27.439 4.98667 27.389 5.01667 27.3423 5.03C27.2956 5.04333 27.2356 5.05 27.1623 5.05H26.8223ZM32.068 11.1C31.7347 11.1 31.4313 11.0333 31.158 10.9C30.8847 10.7667 30.6647 10.5867 30.498 10.36C30.3313 10.1333 30.248 9.87667 30.248 9.59C30.248 9.13 30.4347 8.76333 30.808 8.49C31.1813 8.21667 31.668 8.03667 32.268 7.95L33.758 7.74V7.45C33.758 7.13 33.6647 6.88 33.478 6.7C33.298 6.52 33.0013 6.43 32.588 6.43C32.288 6.43 32.0447 6.49 31.858 6.61C31.678 6.73 31.5513 6.88333 31.478 7.07C31.438 7.17 31.368 7.22 31.268 7.22H30.818C30.7447 7.22 30.688 7.2 30.648 7.16C30.6147 7.11333 30.598 7.06 30.598 7C30.598 6.9 30.6347 6.77667 30.708 6.63C30.788 6.48333 30.908 6.34 31.068 6.2C31.228 6.06 31.4313 5.94333 31.678 5.85C31.9313 5.75 32.238 5.7 32.598 5.7C32.998 5.7 33.3347 5.75333 33.608 5.86C33.8813 5.96 34.0947 6.09667 34.248 6.27C34.408 6.44333 34.5213 6.64 34.588 6.86C34.6613 7.08 34.698 7.30333 34.698 7.53V10.77C34.698 10.8367 34.6747 10.8933 34.628 10.94C34.588 10.98 34.5347 11 34.468 11H34.008C33.9347 11 33.878 10.98 33.838 10.94C33.798 10.8933 33.778 10.8367 33.778 10.77V10.34C33.6913 10.46 33.5747 10.58 33.428 10.7C33.2813 10.8133 33.098 10.91 32.878 10.99C32.658 11.0633 32.388 11.1 32.068 11.1ZM32.278 10.35C32.5513 10.35 32.8013 10.2933 33.028 10.18C33.2547 10.06 33.4313 9.87667 33.558 9.63C33.6913 9.38333 33.758 9.07333 33.758 8.7V8.42L32.598 8.59C32.1247 8.65667 31.768 8.77 31.528 8.93C31.288 9.08333 31.168 9.28 31.168 9.52C31.168 9.70667 31.2213 9.86333 31.328 9.99C31.4413 10.11 31.5813 10.2 31.748 10.26C31.9213 10.32 32.098 10.35 32.278 10.35ZM36.3756 11C36.3089 11 36.2522 10.98 36.2056 10.94C36.1656 10.8933 36.1456 10.8367 36.1456 10.77V4.13C36.1456 4.06333 36.1656 4.01 36.2056 3.97C36.2522 3.92333 36.3089 3.9 36.3756 3.9H36.8456C36.9189 3.9 36.9756 3.92333 37.0156 3.97C37.0556 4.01 37.0756 4.06333 37.0756 4.13V10.77C37.0756 10.8367 37.0556 10.8933 37.0156 10.94C36.9756 10.98 36.9189 11 36.8456 11H36.3756ZM38.8949 11C38.8282 11 38.7715 10.98 38.7249 10.94C38.6849 10.8933 38.6649 10.8367 38.6649 10.77V6.03C38.6649 5.96333 38.6849 5.91 38.7249 5.87C38.7715 5.82333 38.8282 5.8 38.8949 5.8H39.3749C39.4415 5.8 39.4949 5.82333 39.5349 5.87C39.5749 5.91 39.5949 5.96333 39.5949 6.03V10.77C39.5949 10.8367 39.5749 10.8933 39.5349 10.94C39.4949 10.98 39.4415 11 39.3749 11H38.8949ZM38.8149 4.83C38.7482 4.83 38.6915 4.81 38.6449 4.77C38.6049 4.72333 38.5849 4.66667 38.5849 4.6V4.06C38.5849 3.99333 38.6049 3.94 38.6449 3.9C38.6915 3.85333 38.7482 3.83 38.8149 3.83H39.4449C39.5115 3.83 39.5649 3.85333 39.6049 3.9C39.6515 3.94 39.6749 3.99333 39.6749 4.06V4.6C39.6749 4.66667 39.6515 4.72333 39.6049 4.77C39.5649 4.81 39.5115 4.83 39.4449 4.83H38.8149ZM42.9453 11.1C42.572 11.1 42.252 11.0533 41.9853 10.96C41.7187 10.8667 41.502 10.7533 41.3353 10.62C41.1687 10.4867 41.042 10.3533 40.9553 10.22C40.8753 10.0867 40.832 9.98 40.8253 9.9C40.8187 9.82667 40.842 9.77 40.8953 9.73C40.9487 9.69 41.002 9.67 41.0553 9.67H41.4953C41.5353 9.67 41.5653 9.67667 41.5853 9.69C41.612 9.69667 41.6453 9.72333 41.6853 9.77C41.772 9.86333 41.8687 9.95667 41.9753 10.05C42.082 10.1433 42.212 10.22 42.3653 10.28C42.5253 10.34 42.722 10.37 42.9553 10.37C43.2953 10.37 43.5753 10.3067 43.7953 10.18C44.0153 10.0467 44.1253 9.85333 44.1253 9.6C44.1253 9.43333 44.0787 9.3 43.9853 9.2C43.8987 9.1 43.7387 9.01 43.5053 8.93C43.2787 8.85 42.9653 8.76667 42.5653 8.68C42.1653 8.58667 41.8487 8.47333 41.6153 8.34C41.382 8.2 41.2153 8.03667 41.1153 7.85C41.0153 7.65667 40.9653 7.44 40.9653 7.2C40.9653 6.95333 41.0387 6.71667 41.1853 6.49C41.332 6.25667 41.5453 6.06667 41.8253 5.92C42.112 5.77333 42.4687 5.7 42.8953 5.7C43.242 5.7 43.5387 5.74333 43.7853 5.83C44.032 5.91667 44.2353 6.02667 44.3953 6.16C44.5553 6.28667 44.6753 6.41333 44.7553 6.54C44.8353 6.66667 44.8787 6.77333 44.8853 6.86C44.892 6.92667 44.872 6.98333 44.8253 7.03C44.7787 7.07 44.7253 7.09 44.6653 7.09H44.2453C44.1987 7.09 44.1587 7.08 44.1253 7.06C44.0987 7.04 44.072 7.01667 44.0453 6.99C43.9787 6.90333 43.8987 6.81667 43.8053 6.73C43.7187 6.64333 43.602 6.57333 43.4553 6.52C43.3153 6.46 43.1287 6.43 42.8953 6.43C42.562 6.43 42.312 6.5 42.1453 6.64C41.9787 6.78 41.8953 6.95667 41.8953 7.17C41.8953 7.29667 41.932 7.41 42.0053 7.51C42.0787 7.61 42.2187 7.7 42.4253 7.78C42.632 7.86 42.9387 7.94667 43.3453 8.04C43.7853 8.12667 44.132 8.24333 44.3853 8.39C44.6387 8.53667 44.8187 8.70667 44.9253 8.9C45.032 9.09333 45.0853 9.31667 45.0853 9.57C45.0853 9.85 45.002 10.1067 44.8353 10.34C44.6753 10.5733 44.4353 10.76 44.1153 10.9C43.802 11.0333 43.412 11.1 42.9453 11.1ZM47.693 11.1C47.3597 11.1 47.0563 11.0333 46.783 10.9C46.5097 10.7667 46.2897 10.5867 46.123 10.36C45.9563 10.1333 45.873 9.87667 45.873 9.59C45.873 9.13 46.0597 8.76333 46.433 8.49C46.8063 8.21667 47.293 8.03667 47.893 7.95L49.383 7.74V7.45C49.383 7.13 49.2897 6.88 49.103 6.7C48.923 6.52 48.6263 6.43 48.213 6.43C47.913 6.43 47.6697 6.49 47.483 6.61C47.303 6.73 47.1763 6.88333 47.103 7.07C47.063 7.17 46.993 7.22 46.893 7.22H46.443C46.3697 7.22 46.313 7.2 46.273 7.16C46.2397 7.11333 46.223 7.06 46.223 7C46.223 6.9 46.2597 6.77667 46.333 6.63C46.413 6.48333 46.533 6.34 46.693 6.2C46.853 6.06 47.0563 5.94333 47.303 5.85C47.5563 5.75 47.863 5.7 48.223 5.7C48.623 5.7 48.9597 5.75333 49.233 5.86C49.5063 5.96 49.7197 6.09667 49.873 6.27C50.033 6.44333 50.1463 6.64 50.213 6.86C50.2863 7.08 50.323 7.30333 50.323 7.53V10.77C50.323 10.8367 50.2997 10.8933 50.253 10.94C50.213 10.98 50.1597 11 50.093 11H49.633C49.5597 11 49.503 10.98 49.463 10.94C49.423 10.8933 49.403 10.8367 49.403 10.77V10.34C49.3163 10.46 49.1997 10.58 49.053 10.7C48.9063 10.8133 48.723 10.91 48.503 10.99C48.283 11.0633 48.013 11.1 47.693 11.1ZM47.903 10.35C48.1763 10.35 48.4263 10.2933 48.653 10.18C48.8797 10.06 49.0563 9.87667 49.183 9.63C49.3163 9.38333 49.383 9.07333 49.383 8.7V8.42L48.223 8.59C47.7497 8.65667 47.393 8.77 47.153 8.93C46.913 9.08333 46.793 9.28 46.793 9.52C46.793 9.70667 46.8463 9.86333 46.953 9.99C47.0663 10.11 47.2063 10.2 47.373 10.26C47.5463 10.32 47.723 10.35 47.903 10.35ZM53.7417 11C53.3684 11 53.0651 10.93 52.8317 10.79C52.5984 10.6433 52.4284 10.44 52.3217 10.18C52.2151 9.91333 52.1617 9.6 52.1617 9.24V6.6H51.3817C51.3151 6.6 51.2584 6.58 51.2117 6.54C51.1717 6.49333 51.1517 6.43667 51.1517 6.37V6.03C51.1517 5.96333 51.1717 5.91 51.2117 5.87C51.2584 5.82333 51.3151 5.8 51.3817 5.8H52.1617V4.13C52.1617 4.06333 52.1817 4.01 52.2217 3.97C52.2684 3.92333 52.3251 3.9 52.3917 3.9H52.8617C52.9284 3.9 52.9817 3.92333 53.0217 3.97C53.0684 4.01 53.0917 4.06333 53.0917 4.13V5.8H54.3317C54.3984 5.8 54.4517 5.82333 54.4917 5.87C54.5384 5.91 54.5617 5.96333 54.5617 6.03V6.37C54.5617 6.43667 54.5384 6.49333 54.4917 6.54C54.4517 6.58 54.3984 6.6 54.3317 6.6H53.0917V9.17C53.0917 9.48333 53.1451 9.73 53.2517 9.91C53.3584 10.09 53.5484 10.18 53.8217 10.18H54.4317C54.4984 10.18 54.5517 10.2033 54.5917 10.25C54.6384 10.29 54.6617 10.3433 54.6617 10.41V10.77C54.6617 10.8367 54.6384 10.8933 54.5917 10.94C54.5517 10.98 54.4984 11 54.4317 11H53.7417ZM55.848 11C55.7813 11 55.7247 10.98 55.678 10.94C55.638 10.8933 55.618 10.8367 55.618 10.77V6.03C55.618 5.96333 55.638 5.91 55.678 5.87C55.7247 5.82333 55.7813 5.8 55.848 5.8H56.328C56.3947 5.8 56.448 5.82333 56.488 5.87C56.528 5.91 56.548 5.96333 56.548 6.03V10.77C56.548 10.8367 56.528 10.8933 56.488 10.94C56.448 10.98 56.3947 11 56.328 11H55.848ZM55.768 4.83C55.7013 4.83 55.6447 4.81 55.598 4.77C55.558 4.72333 55.538 4.66667 55.538 4.6V4.06C55.538 3.99333 55.558 3.94 55.598 3.9C55.6447 3.85333 55.7013 3.83 55.768 3.83H56.398C56.4647 3.83 56.518 3.85333 56.558 3.9C56.6047 3.94 56.628 3.99333 56.628 4.06V4.6C56.628 4.66667 56.6047 4.72333 56.558 4.77C56.518 4.81 56.4647 4.83 56.398 4.83H55.768ZM60.1894 11.1C59.6827 11.1 59.2594 11.0033 58.9194 10.81C58.5794 10.6167 58.3194 10.35 58.1394 10.01C57.9594 9.66333 57.8594 9.27 57.8394 8.83C57.8327 8.71667 57.8294 8.57333 57.8294 8.4C57.8294 8.22 57.8327 8.07667 57.8394 7.97C57.8594 7.52333 57.9594 7.13 58.1394 6.79C58.3261 6.45 58.5894 6.18333 58.9294 5.99C59.2694 5.79667 59.6894 5.7 60.1894 5.7C60.6894 5.7 61.1094 5.79667 61.4494 5.99C61.7894 6.18333 62.0494 6.45 62.2294 6.79C62.4161 7.13 62.5194 7.52333 62.5394 7.97C62.5461 8.07667 62.5494 8.22 62.5494 8.4C62.5494 8.57333 62.5461 8.71667 62.5394 8.83C62.5194 9.27 62.4194 9.66333 62.2394 10.01C62.0594 10.35 61.7994 10.6167 61.4594 10.81C61.1194 11.0033 60.6961 11.1 60.1894 11.1ZM60.1894 10.33C60.6027 10.33 60.9327 10.2 61.1794 9.94C61.4261 9.67333 61.5594 9.28667 61.5794 8.78C61.5861 8.68 61.5894 8.55333 61.5894 8.4C61.5894 8.24667 61.5861 8.12 61.5794 8.02C61.5594 7.51333 61.4261 7.13 61.1794 6.87C60.9327 6.60333 60.6027 6.47 60.1894 6.47C59.7761 6.47 59.4427 6.60333 59.1894 6.87C58.9427 7.13 58.8127 7.51333 58.7994 8.02C58.7927 8.12 58.7894 8.24667 58.7894 8.4C58.7894 8.55333 58.7927 8.68 58.7994 8.78C58.8127 9.28667 58.9427 9.67333 59.1894 9.94C59.4427 10.2 59.7761 10.33 60.1894 10.33ZM64.0316 11C63.9649 11 63.9083 10.98 63.8616 10.94C63.8216 10.8933 63.8016 10.8367 63.8016 10.77V6.03C63.8016 5.96333 63.8216 5.91 63.8616 5.87C63.9083 5.82333 63.9649 5.8 64.0316 5.8H64.5016C64.5683 5.8 64.6216 5.82333 64.6616 5.87C64.7083 5.91 64.7316 5.96333 64.7316 6.03V6.47C64.9049 6.24333 65.1216 6.06 65.3816 5.92C65.6483 5.77333 65.9883 5.7 66.4016 5.7C66.8349 5.7 67.2016 5.79667 67.5016 5.99C67.8083 6.17667 68.0383 6.44 68.1916 6.78C68.3449 7.11333 68.4216 7.50333 68.4216 7.95V10.77C68.4216 10.8367 68.4016 10.8933 68.3616 10.94C68.3216 10.98 68.2683 11 68.2016 11H67.7016C67.6349 11 67.5783 10.98 67.5316 10.94C67.4916 10.8933 67.4716 10.8367 67.4716 10.77V8C67.4716 7.53333 67.3583 7.17 67.1316 6.91C66.9049 6.64333 66.5716 6.51 66.1316 6.51C65.7183 6.51 65.3849 6.64333 65.1316 6.91C64.8849 7.17 64.7616 7.53333 64.7616 8V10.77C64.7616 10.8367 64.7383 10.8933 64.6916 10.94C64.6516 10.98 64.5983 11 64.5316 11H64.0316Z" fill="#DDDDDD"/>
    <defs>
        <clipPath id="clip0_125_2">
            <rect width="96.7583" height="11.3833" fill="white" transform="translate(76.5293 0.711426)"/>
        </clipPath>
    </defs>
</svg>
